# xmcd CD database file
#
# Track frame offsets:
#	225
#	31198
#	54175
#	76775
#	84487
#	113922
#	149767
#	185629
#	204990
#	233695
#	257964
#	279801
#	315019
#
# Disc length: 4611 seconds
#
# Revision: 0
# Processed by: cddbd v1.5.2PL0 Copyright (c) Steve Scherf et al.
# Submitted via: CDex 1.51
#
DISCID=a112000d
DTITLE=Mccoy Mrubata - The Brasskap Session vo 1
DYEAR=2007
DGENRE=Jazz
TTITLE0=Brasskap
TTITLE1=Alama Lusofona
TTITLE2=Somalia
TTITLE3=Somalia Outro
TTITLE4=Ebuhlanti
TTITLE5=Joburg Mountains
TTITLE6=Perwilly
TTITLE7=Khwela
TTITLE8=Kuthiwani Xa Kunje
TTITLE9=Ikhaya
TTITLE10=Lala Sana Lwami
TTITLE11=Bra Gib
TTITLE12=Missing You
EXTD=YEAR: 2007
EXTT0=
EXTT1=
EXTT2=
EXTT3=
EXTT4=
EXTT5=
EXTT6=
EXTT7=
EXTT8=
EXTT9=
EXTT10=
EXTT11=
EXTT12=
PLAYORDER=
